<?xml version="1.0" encoding="utf-8"?>
<!-- Generator: Adobe Illustrator 24.2.1, SVG Export Plug-In . SVG Version: 6.00 Build 0)  -->
<svg version="1.1" id="Layer_1" xmlns="http://www.w3.org/2000/svg" xmlns:xlink="http://www.w3.org/1999/xlink" x="0px" y="0px"
	 viewBox="0 0 60 60" style="enable-background:new 0 0 60 60;" xml:space="preserve">
<style type="text/css">
	.st0{fill:#40888E;}
	.st1{fill:#3E5959;}
	.st2{fill:#FFFFFF;}
</style>
<g>
	<path class="st0" d="M17,21.7c-1.3,0-2.4,1.1-2.4,2.4v16.5c0,1.3,1.1,2.4,2.4,2.4h26c1.3,0,2.4-1.1,2.4-2.4V24.1
		c0-1.3-1.1-2.4-2.4-2.4H17z"/>
	<path class="st0" d="M20.6,17c-0.7,0-1.2,0.5-1.2,1.2v2.4h7.1v-2.4c0-0.7-0.5-1.2-1.2-1.2H20.6z"/>
	<path class="st1" d="M43,21.7H30V43h13c1.3,0,2.4-1.1,2.4-2.4V24.1C45.3,22.8,44.3,21.7,43,21.7z"/>
	<path class="st1" d="M34.7,17c-0.7,0-1.2,0.5-1.2,1.2v2.4h7.1v-2.4c0-0.7-0.5-1.2-1.2-1.2H34.7z"/>
	<polygon class="st2" points="37.1,28.8 39.4,28.8 39.4,31.2 41.8,31.2 41.8,33.5 39.4,33.5 39.4,35.9 37.1,35.9 37.1,33.5 
		34.7,33.5 34.7,31.2 37.1,31.2 	"/>
	<rect x="18.2" y="31.2" class="st2" width="7.1" height="2.4"/>
</g>
</svg>
