<?xml version="1.0" encoding="utf-8"?>
<!-- Generator: Adobe Illustrator 24.2.1, SVG Export Plug-In . SVG Version: 6.00 Build 0)  -->
<svg version="1.1" id="Layer_1" xmlns="http://www.w3.org/2000/svg" xmlns:xlink="http://www.w3.org/1999/xlink" x="0px" y="0px"
	 viewBox="0 0 80 80" style="enable-background:new 0 0 80 80;" xml:space="preserve">
<style type="text/css">
	.st0{fill:#7FBDC6;}
	.st1{fill:#3E5959;}
	.st2{fill:#FEFEFE;}
</style>
<g>
	<path class="st0" d="M14.8,54.3c-3.6,0.5-6.5-2-6.5-5.6c0-1.7,0-3.4,0-5c0-2.7,1.9-4.6,4.6-4.6c1.2,0,2.4,0,3.6,0
		c0.3,0,0.5-0.1,0.7-0.3c1.9-2.3,3.9-4.5,5.8-6.8c1.3-1.5,2.9-2.3,4.9-2.2c4.6,0,9.1,0,13.7,0c1.5,0,2.8,0.5,4,1.4
		c3,2.5,6,4.9,8.9,7.4c0.8,0.7,1.7,0.7,2.6,0.9c3.2,0.6,6.5,1.2,9.7,1.8c2.2,0.4,3.6,2.2,3.7,4.4c0,1.5,0,3,0,4.4
		c0,2.3-1.8,4.2-4.1,4.3c-0.3,0-0.5,0-0.4-0.4c0.6-4.1-2.2-8-6.2-8.8c-4.1-0.8-8.2,1.8-9.2,5.8c-0.2,0.9-0.3,1.9-0.2,2.8
		c0.1,0.5,0,0.6-0.5,0.6c-3.3,0-6.6,0-9.9,0c-3,0-6,0-9,0c-0.4,0-0.5-0.1-0.4-0.5c0.6-4.1-2.2-8-6.3-8.8C20,44.4,16,46.9,15,50.9
		C14.7,52.1,14.6,53.2,14.8,54.3z"/>
	<path class="st1" d="M22.6,46.5c3.6,0,6.4,2.9,6.3,6.5c0,3.5-3,6.3-6.5,6.3c-3.5,0-6.4-2.9-6.3-6.5C16.2,49.3,19.1,46.5,22.6,46.5z
		"/>
	<path class="st1" d="M58,59.3c-3.5,0-6.4-2.9-6.4-6.4c0-3.5,2.9-6.4,6.4-6.4c3.5,0,6.4,2.9,6.4,6.5C64.4,56.5,61.5,59.3,58,59.3z"
		/>
	<path class="st2" d="M41.9,39.1c-2.3,0-4.5,0-6.8,0c-1.1,0-1.7-0.6-1.7-1.7c0-1.1,0-2.3,0-3.4c0-1,0.6-1.6,1.6-1.6
		c2.3,0,4.5,0,6.8,0c0.5,0,0.8,0.1,1.2,0.4c2.1,1.6,4.1,3.2,6.2,4.9c0.3,0.3,0.6,0.6,0.5,1c-0.2,0.5-0.6,0.5-1,0.5
		C46.4,39.2,44.1,39.2,41.9,39.1C41.9,39.2,41.9,39.2,41.9,39.1z"/>
	<path class="st2" d="M25.3,39.1c-1,0-2,0-3.1,0c-0.4,0-0.7-0.1-0.9-0.5c-0.2-0.4,0-0.6,0.2-0.9c1.4-1.6,2.7-3.2,4.1-4.8
		c0.3-0.4,0.8-0.6,1.3-0.6c0.5,0,1,0,1.5,0c0.9,0,1.5,0.6,1.5,1.5c0,1.3,0,2.5,0,3.8c0,0.9-0.6,1.4-1.5,1.5
		C27.4,39.2,26.3,39.1,25.3,39.1z"/>
	<path class="st2" d="M36.4,44.6c-0.3,0-0.7,0-1,0c-0.8-0.1-1.4-0.7-1.4-1.5c0-0.8,0.6-1.4,1.4-1.4c0.7,0,1.4,0,2.1,0
		c0.8,0,1.4,0.7,1.4,1.5c0,0.8-0.6,1.4-1.4,1.5C37.1,44.6,36.7,44.6,36.4,44.6z"/>
	<path class="st2" d="M25.5,52.9c0,1.6-1.3,2.9-2.9,2.9c-1.6,0-3-1.3-3-3c0-1.6,1.3-2.9,2.9-2.9C24.2,50,25.5,51.3,25.5,52.9z"/>
	<path class="st2" d="M61,52.9c0,1.6-1.3,2.9-2.9,2.9c-1.6,0-3-1.3-3-3c0-1.6,1.3-2.9,2.9-2.9C59.6,50,61,51.3,61,52.9z"/>
	<path class="st1" d="M60.4,37.4c-0.3,0-0.7,0-1,0c0,0,0,0-0.1,0c-0.4,0-0.6-0.1-0.6-0.6c0-0.8-0.7-1.5-1.5-1.4
		c-0.5,0-0.8,0.2-1.2,0.5c-0.2,0.2-0.4,0.2-0.6,0.1c-0.4-0.3-0.8-0.7-1.1-1.1c-0.1-0.2-0.1-0.4,0-0.5c0-0.1,0.1-0.1,0.1-0.2
		c0.6-0.6,0.5-1.7-0.2-2.2c-0.3-0.2-0.6-0.3-1-0.4c-0.4,0-0.5-0.2-0.5-0.5c0-0.1,0-0.1,0-0.2c0-0.4,0-0.8,0-1.2
		c0-0.2,0.2-0.3,0.4-0.4c0.1,0,0.3,0,0.4,0c0.6-0.1,1.1-0.6,1.2-1.3c0.1-0.5-0.1-1-0.5-1.4c-0.2-0.2-0.2-0.4-0.1-0.6
		c0.3-0.4,0.7-0.8,1.1-1.1c0.2-0.1,0.4-0.1,0.5,0c0,0,0.1,0.1,0.1,0.1c0.6,0.5,1.5,0.5,2.1-0.1c0.3-0.3,0.5-0.7,0.5-1.1
		c0-0.3,0.2-0.5,0.5-0.5c0.4,0,0.9,0,1.3,0c0.3,0,0.5,0.2,0.5,0.5c0,0,0,0.1,0,0.1c0,0.8,0.7,1.4,1.5,1.4c0.5,0,0.8-0.2,1.2-0.5
		c0.2-0.2,0.4-0.2,0.6,0c0.4,0.3,0.8,0.7,1.1,1.1c0.1,0.2,0.1,0.4,0,0.5c0,0.1-0.1,0.1-0.1,0.2c-0.6,0.7-0.5,1.9,0.4,2.4
		c0.2,0.1,0.5,0.2,0.8,0.2c0.3,0,0.5,0.2,0.5,0.5c0,0.1,0,0.1,0,0.2c0,0.3,0,0.7,0,1c-0.1,0.1,0,0.2,0,0.3c0,0.2-0.2,0.3-0.4,0.4
		c-0.1,0-0.2,0-0.3,0c-0.8,0.1-1.5,0.8-1.4,1.7c0,0.4,0.2,0.7,0.5,1c0.2,0.2,0.2,0.4,0.1,0.6c-0.3,0.4-0.7,0.8-1.1,1.1
		c-0.1,0.1-0.2,0.1-0.4,0.1c-0.1,0-0.2-0.1-0.3-0.2c-0.6-0.5-1.6-0.5-2.1,0c-0.3,0.3-0.5,0.6-0.5,1C61,37.2,60.8,37.3,60.4,37.4
		C60.4,37.3,60.4,37.3,60.4,37.4z M62.1,33.7C62,33.7,62,33.7,62.1,33.7c-0.6-0.6-1.2-1.2-1.7-1.7c-0.1-0.1-0.1-0.1-0.2,0
		c-0.5,0.2-1.1,0.2-1.6,0c-1.2-0.4-1.9-1.6-1.6-2.9c0-0.1,0.1-0.3,0.2-0.3c0.1,0,0.2,0,0.3,0.1c0.3,0.3,0.7,0.7,1,1
		c0.1,0.1,0.2,0.1,0.3,0.1c0.2,0,0.5-0.1,0.7-0.1c0.1,0,0.1-0.1,0.1-0.1c0.1-0.2,0.1-0.5,0.1-0.7c0-0.1,0-0.2-0.1-0.3
		c-0.4-0.4-0.7-0.7-1.1-1.1c-0.2-0.2-0.1-0.4,0.1-0.5c0.2-0.1,0.4-0.1,0.7-0.1c1.7,0,2.9,1.7,2.3,3.4c0,0.1,0,0.1,0,0.2
		c0.5,0.5,1.1,1,1.6,1.6c0,0,0.1,0.1,0.1,0.1c1-1.5,0.8-3.8-0.9-5.2c-1.5-1.3-3.9-1.3-5.5,0.2c-1.5,1.4-1.7,3.8-0.3,5.4
		C58,34.5,60.3,34.9,62.1,33.7z"/>
</g>
</svg>
