<?xml version="1.0" encoding="utf-8"?>
<!-- Generator: Adobe Illustrator 24.2.1, SVG Export Plug-In . SVG Version: 6.00 Build 0)  -->
<svg version="1.1" id="Layer_1" xmlns="http://www.w3.org/2000/svg" xmlns:xlink="http://www.w3.org/1999/xlink" x="0px" y="0px"
	 viewBox="0 0 60 60" style="enable-background:new 0 0 60 60;" xml:space="preserve">
<style type="text/css">
	.st0{fill:#4A696F;}
	.st1{fill:#FFFFFF;}
	.st2{fill:#40888E;}
</style>
<g>
	<path class="st0" d="M41.9,17.9c-1.4,0-2.5,1.1-2.5,2.5v18.4h3.4c0.4,2.4,2.5,4.2,4.9,4.2c2.5,0,4.5-1.8,4.9-4.2h1.8
		c1.4,0,2.5-1.1,2.5-2.5v-8.1c0-1.7-1.2-3.4-1.4-3.6L52.2,20c-0.8-1-2-2.1-3.5-2.1H41.9z"/>
	<path class="st1" d="M46.9,23h5.3l2,2.7c0.3,0.4,0.9,1.4,1,2.3h-8.3c-0.4,0-0.8-0.5-0.8-0.8v-3.4C46.1,23.3,46.6,23,46.9,23z"/>
	<circle class="st1" cx="47.8" cy="38" r="3.4"/>
	<path class="st2" d="M24.8,30.5L24.8,30.5L3,30.5v5.9c0,1.4,1.1,2.5,2.4,2.5h3.3c0.4,2.4,2.4,4.2,4.8,4.2c2.4,0,4.4-1.8,4.8-4.2
		h6.4v0H37v-8.4H24.8z"/>
	<circle class="st1" cx="13.4" cy="38" r="3.4"/>
	<path class="st0" d="M12.5,16.9c-0.8,0-1.6,0.5-1.9,1.2l-1.5,2.9c-0.2,0.3-0.3,0.7-0.3,1.1v4.9c0,0.6,0.5,1.2,1.2,1.2h0.6
		c0.2,1.2,1.3,2.2,2.6,2.2s2.4-0.9,2.6-2.2h7.9c0.2,1.2,1.3,2.2,2.6,2.2s2.4-0.9,2.6-2.2h0.5c0.7,0,1.3-0.6,1.3-1.3v-2.9
		c0-1.1-0.8-2-1.8-2.1l-3.6-0.6l-3.1-3.6c-0.4-0.5-1-0.8-1.7-0.8H12.5z M12.5,17.8h4.1v3.5H10l1.4-2.8C11.6,18.1,12,17.8,12.5,17.8z
		 M17.5,17.8h2.9c0.4,0,0.7,0.2,1,0.5l2.5,3h-6.5V17.8z M13.1,26.1c1,0,1.7,0.8,1.7,1.7c0,1-0.8,1.7-1.7,1.7s-1.7-0.8-1.7-1.7
		C11.4,26.9,12.2,26.1,13.1,26.1z M26.2,26.1c1,0,1.7,0.8,1.7,1.7c0,1-0.8,1.7-1.7,1.7s-1.7-0.8-1.7-1.7
		C24.5,26.9,25.3,26.1,26.2,26.1z"/>
</g>
</svg>
