<?xml version="1.0" encoding="utf-8"?>
<!-- Generator: Adobe Illustrator 24.2.1, SVG Export Plug-In . SVG Version: 6.00 Build 0)  -->
<svg version="1.1" id="Layer_1" xmlns="http://www.w3.org/2000/svg" xmlns:xlink="http://www.w3.org/1999/xlink" x="0px" y="0px"
	 viewBox="0 0 80 80" style="enable-background:new 0 0 80 80;" xml:space="preserve">
<style type="text/css">
	.st0{fill:#3E5959;}
	.st1{fill:#1A2E35;}
	.st2{fill:#FEFEFE;}
	.st3{fill:#7FBDC6;}
	.st4{fill:#010101;}
</style>
<g>
	<path class="st0" d="M11.5,42.1c0.2-0.5,0.2-1,0.3-1.5c0.4-2.6,1.2-5,2.3-7.3c0.1-0.3,0.2-0.4,0.5-0.2c0.4,0.2,0.7,0.4,1.1,0.6
		c0.5,0.2,0.9,0.1,1.2-0.3c0.2-0.4,0.1-0.9-0.3-1.2c-0.4-0.2-0.8-0.5-1.2-0.7c-0.2-0.1-0.2-0.2-0.1-0.4c1.9-2.9,4.2-5.2,7.1-7.1
		c0.2-0.1,0.3-0.1,0.4,0.1c0.2,0.4,0.4,0.8,0.6,1.1c0.3,0.5,0.8,0.6,1.2,0.4c0.4-0.2,0.5-0.7,0.3-1.2c-0.2-0.4-0.4-0.8-0.6-1.1
		c-0.1-0.2-0.1-0.3,0.1-0.4c2.4-1.2,4.9-2,7.5-2.4c0.7-0.1,1.4-0.1,2-0.2c0.3,0,0.5,0,0.4,0.4c0,0.4,0,0.8,0,1.2
		c0,0.5,0.4,0.9,0.9,0.8c0.5,0,0.8-0.4,0.8-0.8c0-0.4,0-0.8,0-1.2c0-0.3,0.1-0.4,0.4-0.4c2.1,0.1,4.2,0.5,6.2,1.2
		c1.2,0.4,2.3,0.9,3.4,1.4c0.2,0.1,0.3,0.2,0.1,0.4c-0.2,0.4-0.4,0.7-0.7,1.1c-0.3,0.5-0.1,1,0.3,1.2c0.4,0.2,0.9,0.1,1.2-0.4
		c0.2-0.4,0.4-0.7,0.6-1.1c0.1-0.2,0.2-0.3,0.4-0.1c2.9,1.9,5.2,4.2,7.1,7.1c0.1,0.2,0.1,0.3-0.1,0.4c-0.4,0.2-0.8,0.4-1.1,0.6
		c-0.5,0.3-0.6,0.8-0.4,1.2c0.2,0.4,0.7,0.5,1.2,0.3c0.4-0.2,0.8-0.4,1.1-0.6c0.2-0.1,0.3-0.1,0.4,0.1c1.2,2.3,2,4.7,2.3,7.3
		c0.1,0.8,0.2,1.6,0.3,2.4c0,0.2,0,0.3-0.3,0.3c-0.4,0-0.8,0-1.2,0c-0.6,0-1,0.3-1,0.8c0,0.5,0.4,0.9,1,0.9c0.4,0,0.8,0,1.2,0
		c0.2,0,0.3,0.1,0.3,0.3c-0.2,3-0.9,6-2.1,8.7c-0.1,0.2-0.2,0.3-0.4,0.3c-0.3,0-0.6,0-0.8,0.1c-0.5,0.1-0.8,0.5-0.7,1
		c0.1,0.4,0.4,0.7,0.9,0.7c0.5,0,1-0.1,1.4,0.1c1.1,0.4,1.9,1.5,1.7,2.7C58.7,60,57.7,61,56.5,61c-0.2,0-0.3,0-0.5,0
		c-4.1,0-8.3,0-12.4,0c-0.2,0-0.3,0-0.6,0c5.9-3.1,9.6-7.7,10.5-14.3c0.9-6.5-1.2-12.1-6.1-16.6c-7.8-7.1-20.4-6-26.9,2.3
		c-3.7,4.7-4.9,10-3.6,15.8c1.3,5.8,4.9,9.9,10.2,12.6C27,61.1,26.8,61,26.7,61c-4.1,0-8.1,0-12.2,0c-1.8,0-2.4-0.4-3.1-2.1
		c0-0.3,0-0.6,0-0.9c0.3-1.5,1.2-2.2,2.7-2.2c0.2,0,0.4,0,0.6,0c0.4,0,0.7-0.3,0.8-0.6c0.1-0.3-0.2-0.7-0.5-0.8
		c-0.3-0.1-0.6-0.1-1-0.2c-0.3,0-0.4-0.2-0.6-0.4c-1-2.3-1.8-4.7-1.9-7.2c0-0.3,0-0.7-0.1-1c0-0.2,0-0.5,0-0.7
		c0.2-0.2,0.4-0.1,0.7-0.1c0.4,0,0.8,0,1.1-0.1c0.3-0.1,0.5-0.3,0.5-0.7c0-0.4-0.2-0.6-0.5-0.7c-0.4-0.1-0.8-0.1-1.1-0.1
		c-0.2,0-0.5,0-0.7-0.1C11.5,42.9,11.5,42.5,11.5,42.1z"/>
	<path class="st1" d="M35.2,61c-9.3,0-16.9-7.5-16.9-16.9c0-9.3,7.5-16.9,16.9-17c9.3,0,16.9,7.5,17,16.9C52.1,53.4,44.5,61,35.2,61
		z"/>
	<path class="st2" d="M50.4,44.2c0,8.3-6.8,15.1-15.3,15.1c-8,0-15.2-6.3-15.2-15.1c0-8.5,6.8-15.3,15.2-15.4
		C43.5,28.9,50.4,35.7,50.4,44.2z"/>
	<path class="st3" d="M35.2,30.6c0.4,0,0.8,0.1,1.2,0.1c0.4,0,0.5,0.1,0.4,0.5c-0.1,1.7-0.2,3.4-0.3,5.1c0,0.3,0,0.6,0,1
		c0,0.7,0.3,1.2,0.9,1.5c0.9,0.4,1.6,1,2.3,1.7c0.6,0.6,1.3,0.6,2.1,0.3c1.8-0.7,3.5-1.4,5.3-2.1c0.4-0.2,0.5-0.1,0.7,0.3
		c0.3,0.8,0.6,1.6,0.7,2.4c0.1,0.3,0,0.4-0.3,0.5c-1.8,0.5-3.6,0.9-5.4,1.4c-1.2,0.3-1.6,0.7-1.7,1.9c-0.1,0.7-0.3,1.4-0.7,2
		c-0.5,0.9-0.5,1.5,0.2,2.4c1.2,1.4,2.4,2.9,3.6,4.3c0.2,0.3,0.2,0.4-0.1,0.6c-0.7,0.6-1.4,1.1-2.1,1.5c-0.3,0.2-0.4,0.1-0.5-0.1
		c-1-1.6-2-3.1-3-4.7c-0.5-0.8-1.2-1.2-2.2-1c-0.8,0.2-1.6,0.1-2.3,0c-0.9-0.2-1.5,0.1-2,0.9c-1,1.6-2,3.2-3,4.8
		c-0.2,0.3-0.3,0.3-0.6,0.1c-0.7-0.5-1.4-0.9-2.1-1.5C26,54.1,26,54,26.2,53.7c1.2-1.4,2.4-2.8,3.5-4.3c0.7-0.9,0.8-1.4,0.2-2.4
		c-0.4-0.7-0.6-1.4-0.7-2.1c-0.1-1-0.5-1.5-1.5-1.7c-1.8-0.5-3.7-1-5.5-1.4c-0.4-0.1-0.5-0.3-0.4-0.6c0.2-0.8,0.5-1.6,0.8-2.3
		c0.1-0.3,0.2-0.3,0.5-0.2c1.8,0.7,3.5,1.4,5.3,2.1c1,0.4,1.6,0.3,2.4-0.5c0.5-0.5,1.1-1,1.8-1.3c0.9-0.4,1.3-1,1.2-2
		c-0.1-1.9-0.2-3.8-0.4-5.6c0-0.4,0-0.7,0.5-0.6C34.4,30.7,34.8,30.6,35.2,30.6z"/>
	<path class="st2" d="M35.1,48.3c-2.3,0-4.2-2-4.2-4.3c0-2.4,2-4.2,4.3-4.2c2.3,0,4.1,1.9,4.1,4.2C39.4,46.5,37.5,48.4,35.1,48.3z"
		/>
	<path d="M37.7,44.2c0,1.4-1.2,2.5-2.6,2.5c-1.4,0-2.5-1.2-2.5-2.6c0-1.4,1.2-2.5,2.6-2.5C36.6,41.6,37.7,42.8,37.7,44.2z"/>
	<path class="st1" d="M57.4,49.4c0.2-0.2,0.3-0.3,0.6-0.2c0.9,0.3,1.5,1.1,1.5,2c0,0.5,0,1.1,0,1.6c0,0.7,0.3,1.4,0.9,1.8
		c0.8,0.6,1.7,0.7,2.5,0.3c0.9-0.4,1.4-1.2,1.4-2.2c0-3.3,0-6.7,0-10c0-3.4,0-6.8,0-10.2c0-0.2,0-0.3,0.3-0.4
		c0.4-0.1,0.7-0.3,0.8-0.7c0.1-0.4,0.3-0.4,0.6-0.4c0.6,0,0.6,0,0.7,0.6c0,0.4,0.3,0.6,0.6,0.6c0.3,0,0.6-0.2,0.6-0.6
		c0-0.8,0-1.6,0-2.4c0-0.4-0.3-0.6-0.6-0.6c-0.3,0-0.6,0.2-0.6,0.6c-0.1,0.6-0.1,0.6-0.6,0.6c-0.1,0-0.2,0-0.2,0
		c-0.3,0-0.4,0-0.3-0.3c0-0.3,0-0.6,0-0.9c0-0.3,0.1-0.4,0.3-0.5c2-1,3.1-3.2,2.6-5.4c-0.5-2.2-2.4-3.8-4.6-3.8
		c-2.3,0-4.3,1.5-4.8,3.7c-0.5,2.2,0.5,4.5,2.6,5.5c0.2,0.1,0.3,0.2,0.3,0.5c0,0.8,0,1.6,0,2.4c0,0.5,0.2,1,0.7,1
		c0.7,0.1,0.6,0.6,0.6,1c0,0.2,0,0.4,0,0.6c0,6.4,0,12.7,0,19.1c0,0.8-0.5,1.3-1.2,1.3c-0.7,0-1.2-0.5-1.2-1.3c0-0.5,0-0.9,0-1.4
		c-0.1-1.4-0.7-2.5-2.1-3.1c-0.3-0.1-0.3-0.2-0.1-0.4"/>
	<path class="st2" d="M63.7,27.4c-2,0-3.6-1.6-3.6-3.7c0-2,1.7-3.6,3.6-3.6c2,0,3.6,1.7,3.6,3.7C67.3,25.8,65.7,27.4,63.7,27.4z"/>
	<path class="st2" d="M64.3,29.8c0,0.1,0,0.2,0,0.3c0,1,0,1-1,0.9c-0.1,0-0.2,0-0.2-0.2c0-0.7,0-1.4,0-2c0-0.1,0-0.2,0.2-0.2
		c0,0,0,0,0,0c1,0,1,0,1,0.9C64.3,29.6,64.3,29.7,64.3,29.8z"/>
	<path class="st4" d="M63.7,24.5c-0.3,0-0.5-0.2-0.6-0.4c-0.1-0.3,0-0.5,0.2-0.6c0.7-0.5,1.3-1,2-1.4c0.1-0.1,0.2-0.1,0.3,0
		c0.1,0.1,0.1,0.2,0,0.3c-0.5,0.7-0.9,1.3-1.4,2C64,24.4,63.8,24.4,63.7,24.5z"/>
</g>
</svg>
